PathFileType	4	(X/Y/Z)	walk-thru1-4-TP.trc
DataRate	CameraRate	NumFrames	NumMarkers	Units	OrigDataRate	OrigDataStartFrame	OrigNumFrames
120.00	120.00	       4	60	mm	120.00	1	       497
Frame#	Time	Top.Head			Front.Head			Rear.Head			Jaw			C7			R.Clavicle			L.Clavicle			R.Shoulder			L.Shoulder			R.Scapula			L.Scapula			R.Scap.Inf			R.Biceps.Lateral			R.Elbow			R.Elbow.Medial			R.Forearm			R.Ulna			R.Radius			R.Wrist			R.Thumb.M1			R.Thumb.M2			R.Thumb.M3			R.Finger3.M1			R.Finger3.M2			R.Finger3.M3			L.Biceps.Lateral			L.Elbow			L.Elbow.Medial			L.Forearm			L.Ulna			L.Radius			L.Wrist			L.Thumb.M1			L.Thumb.M2			L.Thumb.M3			L.Finger3.M1			L.Finger3.M2			L.Finger3.M3			V.Sacral			R.ASIS			L.ASIS			R.Thigh			R.Thigh.Front			R.Knee			R.Knee.Medial			R.Shank			R.Ankle			R.Ankle.Medial			R.Heel			R.Toe			R.MedFoot			L.Thigh			L.Knee			L.Knee.Medial			L.Shank			L.Ankle			L.Ankle.Medial			L.Heel			L.Toe			L.MedFoot			V_mid_ASIS			V_R_Knee_JC			V_L_Knee_JC			V_R_Elbow_JC			V_L_Elbow_JC			V_R_Ankle_JC			V_L_Ankle_JC			V_R_Wrist_JC			V_L_Wrist_JC			V_R_ScaTrpz_1stMC_JC			V_R_1stMC_1stPP_JC			V_R_1stPP_1stDP_JC			V_R_LunCap_3rdMC_JC			V_R_3rdMC_3rdPP_JC			V_R_3rdPP_3rdMP_JC			V_R_3rdMP_3rdDP_JC			V_L_ScaTrpz_1stMC_JC			V_L_1stMC_1stPP_JC			V_L_1stPP_1stDP_JC			V_L_LunCap_3rdMC_JC			V_L_3rdMC_3rdPP_JC			V_L_3rdPP_3rdMP_JC			V_L_3rdMP_3rdPP_JC			V_ROOT_JC			V_R_Hip_JC			V_L_Hip_JC			V_R_GlenHum_JC			V_L_GlenHum_JC			V_ForeHead_Ctr			V_Vertex			V_Sagit_Lambdoid_Suture			V_R_FrontoTemp			V_L_FrontoTemporal			V_R_ParietalOccip			V_L_ParietalOcciptal			V_R_Temporal			V_L_Temporal			V_mid_FrontRearHead			V_mid_RLGlenHumCtrs			V_C7_vert			V_C1_vert			V_Mid_Hip			
		X1	Y1	Z1	X2	Y2	Z2	X3	Y3	Z3	X4	Y4	Z4	X5	Y5	Z5	X6	Y6	Z6	X7	Y7	Z7	X8	Y8	Z8	X9	Y9	Z9	X10	Y10	Z10	X11	Y11	Z11	X12	Y12	Z12	X13	Y13	Z13	X14	Y14	Z14	X15	Y15	Z15	X16	Y16	Z16	X17	Y17	Z17	X18	Y18	Z18	X19	Y19	Z19	X20	Y20	Z20	X21	Y21	Z21	X22	Y22	Z22	X23	Y23	Z23	X24	Y24	Z24	X25	Y25	Z25	X26	Y26	Z26	X27	Y27	Z27	X28	Y28	Z28	X29	Y29	Z29	X30	Y30	Z30	X31	Y31	Z31	X32	Y32	Z32	X33	Y33	Z33	X34	Y34	Z34	X35	Y35	Z35	X36	Y36	Z36	X37	Y37	Z37	X38	Y38	Z38	X39	Y39	Z39	X40	Y40	Z40	X41	Y41	Z41	X42	Y42	Z42	X43	Y43	Z43	X44	Y44	Z44	X45	Y45	Z45	X46	Y46	Z46	X47	Y47	Z47	X48	Y48	Z48	X49	Y49	Z49	X50	Y50	Z50	X51	Y51	Z51	X52	Y52	Z52	X53	Y53	Z53	X54	Y54	Z54	X55	Y55	Z55	X56	Y56	Z56	X57	Y57	Z57	X58	Y58	Z58	X59	Y59	Z59	X60	Y60	Z60	

1	0.000	-630.47729	45.02155	1558.29333	-535.21875	40.44313	1453.73303	-746.08356	42.12269	1482.22046	-570.92151	22.77868	1314.73340	-769.22278	22.83064	1372.27295	-690.64044	-89.17607	1281.90503	-669.13287	125.05756	1288.03125	-740.91345	-165.73395	1280.56824	-716.20746	219.36453	1289.67627	-820.37567	-62.89351	1297.43652	-815.39026	120.25645	1298.29309	-868.17590	-46.18010	1217.78748	-718.26404	-222.07278	1139.42822	-745.10107	-247.70834	979.95459	-775.31842	-178.88040	960.64008	-664.87250	-241.60457	908.30103	-689.25757	-269.79535	823.06384	-619.74072	-230.00748	779.23175	-622.15668	-272.11346	747.40155	-592.19946	-235.32787	732.15643	-576.08740	-219.41353	699.42572	-561.90558	-208.28114	661.53009	-599.41736	-287.10928	672.90112	-594.48914	-269.19412	624.50006	-599.25787	-253.64203	587.15601	-736.63770	280.10513	1144.38501	-791.83191	295.16196	1003.98639	-811.64471	216.64018	994.10522	-708.50354	282.53906	937.10254	-722.76758	322.95331	847.06683	-671.23456	269.81790	802.97339	-659.27814	318.88000	780.08484	-642.27850	276.49854	766.46039	-631.70038	254.56720	729.37531	-625.53143	248.08997	679.15674	-638.93420	320.37939	693.88232	-634.88409	317.80212	655.64343	-635.68555	304.48990	612.31604	-889.98090	25.63620	908.31891	-694.24530	-132.17204	966.84100	-702.91913	185.72231	951.85559	-693.31085	-156.39444	576.50104	-628.52856	-80.24691	489.66864	-679.58759	-114.01216	438.26846	-672.87677	-0.21550	435.22693	-698.62286	-55.72442	266.08530	-797.47577	-57.86546	63.44106	-774.73224	31.05723	82.81006	-854.72412	-0.73886	41.35854	-652.97943	-40.70594	36.55196	-708.67108	3.25424	64.10020	-651.16974	228.24988	587.74756	-603.98785	213.68646	450.09488	-584.80487	92.95296	430.27228	-694.31244	148.57918	271.40134	-849.79767	162.30003	139.18359	-829.48645	73.84977	153.52873	-911.94537	111.57562	145.97023	-740.05823	124.81360	50.74927	-770.16541	94.80943	95.26411																																																																																																																															
2	0.008	-626.91461	45.47014	1558.26013	-530.42749	38.87447	1452.54480	-742.23425	42.27164	1482.48376	-566.32715	22.48079	1313.93396	-763.09552	21.60635	1372.45593	-685.69861	-89.27986	1281.94250	-664.90375	124.69968	1288.26367	-737.32568	-164.84846	1280.41052	-711.78632	218.89456	1289.08728	-816.33539	-62.46603	1297.61133	-810.03125	121.23213	1297.90137	-863.59143	-46.07330	1217.25647	-713.48352	-220.97336	1139.91284	-739.10358	-247.20584	979.70331	-768.79010	-178.10197	960.71222	-658.66571	-242.70439	909.22540	-681.68225	-270.21768	823.47644	-612.14355	-230.73755	780.66638	-615.71490	-272.21692	747.23822	-583.77911	-236.13470	733.12781	-567.15381	-219.85016	701.30231	-552.93762	-208.00346	663.16443	-592.49469	-286.45923	673.82281	-584.45184	-270.52936	625.65985	-590.87378	-254.21434	588.05920	-732.68860	281.50278	1144.37073	-786.87500	295.56000	1004.09381	-807.10101	217.94403	993.79150	-704.43555	282.54187	936.94318	-718.85138	323.14078	847.18982	-667.08234	269.66220	802.98749	-660.29968	317.87415	777.87250	-638.50732	275.33508	766.15979	-628.03082	254.03210	728.71228	-622.29846	245.66609	679.35938	-634.94678	318.79037	693.33301	-630.99298	315.27179	654.63831	-633.11224	301.05142	611.59821	-886.00287	26.31052	907.81598	-690.00793	-133.23289	967.06854	-697.77142	185.71925	952.54584	-691.21234	-156.41438	575.22162	-626.45276	-80.01862	488.86591	-677.93188	-114.13131	438.16455	-670.89435	-0.50546	434.66394	-697.68335	-56.43689	266.39890	-797.43683	-57.43090	63.16761	-774.63092	31.10863	82.30521	-855.21362	-0.75881	41.30235	-653.55927	-41.57971	36.59078	-708.67108	3.25424	64.10020	-642.52612	226.49594	588.24176	-596.27087	213.16467	450.65668	-576.08582	91.36731	432.15976	-682.18823	148.85612	271.14984	-834.86243	162.54637	134.85338	-811.77686	75.91387	148.16650	-896.85376	111.39809	139.48695	-721.97839	127.14448	49.42893	-751.68243	94.32028	93.95649																																																																																																																															
3	0.017	-622.23590	45.90973	1557.59167	-525.63226	39.61642	1452.82361	-737.14313	41.80230	1482.08337	-561.87555	21.90767	1313.50977	-758.55371	22.82444	1372.94360	-680.82880	-89.74100	1281.77271	-660.56354	124.28727	1287.66675	-732.77008	-166.86411	1280.24109	-708.02368	219.24733	1289.40088	-811.72937	-62.66541	1296.92749	-805.03497	120.44471	1297.79260	-859.17346	-46.77671	1216.66248	-707.82245	-221.80743	1139.90710	-733.24994	-248.03783	979.55609	-763.07391	-179.12442	960.58197	-652.19080	-242.82434	910.12146	-673.97333	-271.09479	824.43817	-604.71082	-231.11438	781.76318	-608.78430	-272.49274	747.55988	-575.99969	-236.52310	733.27179	-559.74518	-220.99290	702.11615	-545.33984	-208.52049	663.38904	-583.50269	-286.88330	675.13684	-575.76477	-271.54877	627.00348	-580.80115	-254.47667	589.31934	-728.53467	280.15918	1145.03723	-782.79584	295.78192	1003.78210	-802.34613	216.84950	993.90570	-699.31055	283.08923	936.47595	-713.87579	323.15982	847.30780	-662.22980	268.22705	802.92328	-654.99261	317.35452	777.15259	-633.95984	275.34927	766.27606	-624.02545	252.03127	729.37030	-620.37329	243.18959	678.65479	-631.41376	316.80643	692.82056	-626.70667	312.50757	654.74573	-630.19177	297.02380	611.73560	-881.02917	26.87514	907.81476	-683.64709	-133.15106	966.21851	-693.12714	184.43488	952.06207	-689.40118	-156.10825	575.12573	-624.55566	-79.61736	488.08960	-676.47528	-113.66536	437.66238	-669.47620	-0.77522	434.13272	-696.57629	-55.65771	266.03922	-797.47577	-57.86546	63.44106	-774.63092	31.10863	82.30521	-855.06293	-0.46843	41.33934	-653.55927	-41.57971	36.59078	-708.75140	3.83942	64.09080	-635.67377	225.52725	588.61823	-586.60968	212.62968	452.83841	-567.84515	90.17086	433.63779	-669.34998	148.93921	270.24261	-819.73572	164.50145	131.42519	-796.05182	75.84927	143.95821	-880.60486	112.25740	133.44481	-703.33527	128.23729	50.21831	-736.19452	96.61815	91.76865																																																																																																																															
4	0.025	-617.11914	46.42173	1557.40466	-521.24158	40.05276	1453.21545	-732.54828	42.01585	1481.22559	-558.18579	22.65526	1313.72717	-756.73059	22.69411	1372.09143	-677.10791	-89.43650	1282.46826	-656.32672	123.34599	1287.87500	-727.82977	-165.68799	1279.80701	-703.31097	218.65393	1288.85913	-807.37189	-63.15619	1296.75659	-801.56641	120.91370	1297.53125	-854.88678	-45.89997	1216.43030	-703.27448	-221.62085	1140.07336	-726.34290	-246.92912	979.21497	-755.77948	-177.25952	958.91284	-645.42249	-243.57762	910.54089	-667.24744	-271.51566	824.53931	-597.01129	-231.40816	782.30585	-601.33942	-272.61224	749.02417	-569.02515	-236.89613	734.03864	-551.02881	-220.59346	703.58667	-536.97296	-208.05724	665.41986	-575.62390	-287.74408	675.94830	-568.98907	-269.89420	626.97894	-572.76990	-254.14629	590.18146	-726.40027	280.72137	1144.59351	-778.61975	295.20230	1003.61108	-798.66956	216.95905	993.49408	-695.11230	283.11234	936.50134	-710.12000	322.50168	847.20148	-657.31042	267.14117	802.67200	-650.77985	317.21567	776.95605	-629.76001	274.30777	765.93665	-619.94092	250.48055	729.87823	-616.24481	240.88965	678.56274	-625.60242	316.73618	692.04944	-622.39539	310.96396	653.39246	-626.66827	295.26303	611.82440	-876.70850	27.64877	907.49390	-681.80750	-133.60060	966.38318	-688.90643	183.69406	952.38849	-686.43933	-154.51501	575.18732	-622.35413	-80.40203	487.26303	-675.01831	-113.20006	437.16785	-665.93787	-1.27954	433.20239	-694.96259	-54.86996	264.56271	-797.57825	-57.51466	63.28853	-774.90698	30.35518	82.86237	-855.06293	-0.46843	41.33934	-653.55927	-41.57971	36.59078	-709.09863	4.05275	63.31988	-628.36963	226.34474	589.95563	-578.75348	211.20012	453.78055	-560.64624	89.78402	434.47983	-657.36011	148.86317	269.57129	-804.47876	164.65094	126.85436	-781.39850	74.68916	139.94217	-864.58264	111.54655	126.86079	-685.16333	130.97581	49.77041	-717.86786	97.86699	89.82533																																																																																																																															
